<svg width="34" height="34" viewBox="0 0 34 34" fill="none" xmlns="http://www.w3.org/2000/svg">
<path d="M1 1H14.736C15.8406 1 16.736 1.89543 16.736 3V16.736H1V1Z" stroke="#1E1E1E" stroke-width="2"/>
<path d="M17 17H30.736C31.8406 17 32.736 17.8954 32.736 19V32.736H17V17Z" stroke="#1E1E1E" stroke-width="2"/>
<path d="M1 17H16.736V32.736H3C1.89543 32.736 1 31.8406 1 30.736V17Z" stroke="#1E1E1E" stroke-width="2"/>
<path d="M12.832 4.936L13.984 13H12.352L11.68 7.72L9.568 13H8.8L6.688 7.72L6.016 13H4.384L5.536 4.936H7.072L9.184 10.12L11.296 4.936H12.832Z" fill="#1E1E1E"/>
<path d="M28.832 20.936L29.984 29H28.352L27.68 23.72L25.568 29H24.8L22.688 23.72L22.016 29H20.384L21.536 20.936H23.072L25.184 26.12L27.296 20.936H28.832Z" fill="#1E1E1E"/>
</svg>
